<?xml version="1.0" encoding="UTF-8"?>
<!DOCTYPE svg PUBLIC "-//W3C//DTD SVG 1.1//EN" "http://www.w3.org/Graphics/SVG/1.1/DTD/svg11.dtd">
<!-- Creator: CorelDRAW X6 -->
<svg xmlns="http://www.w3.org/2000/svg" xml:space="preserve" width="182.448mm" height="57.4954mm" version="1.1" style="shape-rendering:geometricPrecision; text-rendering:geometricPrecision; image-rendering:optimizeQuality; fill-rule:evenodd; clip-rule:evenodd"
viewBox="0 0 18110 5707"
 xmlns:xlink="http://www.w3.org/1999/xlink">
 <defs>
  <style type="text/css">
   <![CDATA[
    .fil0 {fill:#FEFEFE}
   ]]>
  </style>
 </defs>
 <g id="Слой_x0020_1">
  <metadata id="CorelCorpID_0Corel-Layer"/>
  <g id="_979602000">
   <g>
    <path class="fil0" d="M2502 5634l189 62c-20,-21 -36,-51 -47,-91 -98,-168 -124,-490 -86,-912l-9 -5c-12,-7 -24,-14 -36,-21l-12 -7c-11,-6 -21,-13 -32,-20l-16 -10 -3 -2 -16 -10 -3 -2 -3 -2c-8,-6 -17,-11 -25,-17l-3 -2 -3 -2 -3 -2 -3 -2 -3 -2c-11,-8 -23,-16 -34,-24 -81,602 -41,1010 149,1073zm1398 -4935c197,-307 386,-514 548,-584 33,-25 63,-41 92,-45l-189 -62c-177,-58 -428,204 -698,672l5 0c16,0 32,1 48,1l7 0c14,1 28,1 42,2l13 1c11,1 21,2 32,3l4 0 19 2 4 0 23 2 4 0 27 3 4 0 8 1 4 0 4 1z"/>
    <path class="fil0" d="M6974 4068l62 -189c-24,19 -60,33 -107,42 -239,107 -759,90 -1442,-30l-6 11c-6,11 -13,22 -20,34l-7 12 -2 3c-6,10 -12,20 -19,30l-8 13 -2 3c-6,9 -12,18 -18,27l-12 18 -16 23 -2 3 -10 15 -2 3c912,185 1541,200 1612,-16zm-5489 -1464c-716,-339 -1215,-669 -1355,-917 -33,-35 -54,-68 -61,-97l-62 189c-76,231 517,628 1467,1051l0 -4 0 -7 0 -4 0 -4 0 -4 0 -25 0 -4 0 -4 0 -4 0 -14 0 -4 1 -25 0 -4 0 -1 1 -17 0 -4 0 -4 2 -28 0 -4 0 -4 0 -4 1 -7 0 -4 0 -4 3 -32 0 -4 0 -4 0 -4 0 -4z"/>
    <path class="fil0" d="M5660 3498l-47 -16c-290,883 -1111,1443 -1992,1443 -217,0 -438,-34 -655,-105 -883,-290 -1443,-1111 -1443,-1992 0,-217 34,-438 105,-655 290,-883 1111,-1443 1992,-1443 217,0 438,34 655,105 883,290 1443,1111 1443,1992 0,217 -34,438 -105,655l47 16 47 16c75,-228 110,-459 110,-686 0,-923 -587,-1783 -1511,-2087 -228,-75 -459,-110 -686,-110 -923,0 -1783,587 -2087,1512 -75,228 -110,459 -110,686 0,923 587,1783 1512,2087 228,75 459,110 686,110 923,0 1783,-587 2087,-1511l-47 -16z"/>
    <path class="fil0" d="M4843 2405c-38,-15 -77,-31 -115,-46l-6 -2c-39,-15 -78,-30 -117,-45l-6 -2c-18,-7 -37,-14 -55,-21l-5 -2c-20,-8 -40,-15 -60,-23l-4 -1c-18,-7 -37,-14 -55,-21l-10 -4c-39,-14 -79,-29 -119,-43l-12 -4c-18,-7 -36,-13 -55,-20l-5 -2c-20,-7 -40,-14 -60,-21l-12 -4c-17,-6 -33,-12 -50,-18l-13 -4c-20,-7 -40,-14 -61,-21l-9 -3c-18,-6 -35,-12 -53,-18l-16 -5c-20,-7 -41,-14 -61,-21 -13,49 -26,98 -40,147 -19,67 -39,135 -60,204 357,119 702,247 1026,376 19,-69 38,-137 55,-205 13,-49 25,-98 37,-146 -19,-8 -38,-15 -57,-23l-3 -1z"/>
    <path class="fil0" d="M1232 1553c123,16 255,37 395,62 -139,-25 -271,-46 -395,-62zm-546 -46c-31,-1 -62,-1 -91,-1 29,0 60,0 91,1 63,1 130,5 201,10 -71,-5 -138,-9 -201,-10zm1124 -3c-12,-2 -23,-4 -35,-6l-1 0c-11,-2 -23,-4 -34,-6l-2 0c-11,-2 -22,-4 -33,-6l-2 0c-11,-2 -22,-4 -33,-6l-2 0c-11,-2 -22,-4 -32,-5l-3 -1c-10,-2 -21,-3 -31,-5l-3 -1c-10,-2 -21,-3 -31,-5l-3 -1c-10,-1 -20,-3 -30,-4l-4 -1c-10,-1 -20,-3 -30,-4l-4 -1c-10,-1 -20,-3 -29,-4l-4 -1c-10,-1 -19,-3 -29,-4l-4 -1c-9,-1 -19,-3 -28,-4l-4 -1c-9,-1 -19,-2 -28,-4l-4 -1c-9,-1 -18,-2 -28,-3l-4 -1c-9,-1 -18,-2 -27,-3l-4 -1c-9,-1 -18,-2 -27,-3l-4 -1 -27 -3 -4 0 -27 -3 -4 0 -26 -3 -4 0 -26 -3 -4 0 -26 -2 -4 0 -26 -2 -3 0 -26 -2 -3 0 -26 -2 -1 0 -27 -2 -1 0c-9,-1 -18,-1 -27,-2l0 0c-109,-7 -210,-10 -302,-9l-1 0 -20 0 -3 0 -18 0 -4 0 -17 1 -6 0 -16 1 -6 0 -15 1 -6 0 -14 1 -7 1 -13 1 -7 1 -13 1 -7 1 -12 1 -8 1 -12 1 -8 1 -11 1 -8 1 -11 1 -8 1 -10 1 -8 1 -10 2 -8 1 -10 2 -8 1 -9 2 -7 1 -9 2 -7 1 -9 2 -7 2 -8 2 -7 2 -8 2 -7 2 -8 2 -7 2 -7 2 -7 2 -7 2 -7 2 -7 2 -6 2 -7 2 -6 2 -6 3 -6 2 -6 3 -6 2 -6 3 -6 3 -6 3 -5 3 -5 3 -5 3 -5 3 -5 3 -5 3 -5 3 -4 3 -5 3 -4 3 -4 3 -4 3 -4 3 -4 3 -4 4 -4 3 -4 4 -3 3 -3 4 -3 3 -3 4 -3 3 -3 4 -2 3 -3 4 -2 3 -3 4 -2 3 -2 5 -1 3 -3 6 -1 2 -3 8 -29 90 -32 99c91,-277 1770,-14 3555,561 21,-68 41,-136 60,-204 14,-49 27,-98 40,-147 -695,-223 -1323,-382 -1853,-479z"/>
    <path class="fil0" d="M7045 3817l-1 -11 0 -3 -2 -13 -1 -2 -3 -12 -1 -3 -4 -13 -1 -3 -4 -12 -1 -3 -6 -14 -1 -3 -6 -13 -1 -2 -8 -15 -2 -3 -8 -13 -1 -2 -10 -15 -2 -4 -10 -15 -1 -1 -12 -16 -3 -4c-9,-11 -18,-22 -27,-33l-3 -4 -15 -17 0 -1 -16 -17 -4 -4 -17 -18 -1 -1 -17 -17 -4 -4 -19 -18 -2 -2 -19 -17 -4 -3 -21 -18 -3 -2 -20 -17 -3 -3 -23 -19 -3 -3 -22 -18 -3 -2 -25 -20 -4 -3 -25 -19 -2 -1c-9,-7 -18,-13 -27,-20l-4 -3c-9,-7 -18,-13 -28,-20l0 0c-10,-7 -20,-14 -29,-21l-5 -3c-20,-14 -40,-28 -61,-42l-5 -3c-21,-14 -43,-28 -65,-43l-5 -3c-23,-14 -46,-29 -69,-44l-4 -3c-12,-7 -24,-15 -36,-22l0 0c-12,-7 -24,-15 -37,-22l-4 -2c-13,-7 -25,-15 -38,-23l-2 -1c-13,-7 -25,-15 -38,-22l-3 -2c-13,-8 -26,-15 -40,-23l-3 -2c-13,-7 -27,-15 -40,-22l-2 -1c-14,-8 -28,-15 -42,-23l-3 -2c-14,-8 -28,-15 -43,-23l0 0c-15,-8 -29,-16 -44,-24l-4 -2c-29,-16 -59,-31 -90,-47l-4 -2c-31,-16 -62,-32 -93,-47l-4 -2c-32,-16 -64,-32 -97,-48l-5 -2c-33,-16 -66,-32 -100,-48l-4 -2c-34,-16 -69,-32 -104,-49l-4 -2c-35,-16 -72,-33 -108,-49l-3 -1c-18,-8 -37,-16 -55,-25l-2 -1c-19,-8 -37,-16 -56,-25l-1 -1c-19,-8 -38,-16 -57,-25l-3 -1c-19,-8 -38,-16 -58,-25 -12,48 -24,96 -37,145 -18,67 -36,135 -55,204 1178,487 2017,984 1948,1192l32 -99 0 0 30 -90 0 0 3 -12 1 -3 2 -12 0 -1 1 -11 0 -3 0 -12 0 -2z"/>
    <polygon class="fil0" points="4385,2391 4385,2391 "/>
    <path class="fil0" d="M4128 2524l0 0c-33,115 -68,232 -105,349l3 1c67,25 132,49 196,74 48,19 95,38 142,57l0 0c7,-23 15,-46 22,-69l1 -4c7,-22 14,-44 20,-66l2 -6c7,-22 13,-44 20,-65l1 -5c7,-22 13,-44 20,-66l1 -2c7,-24 14,-48 21,-72l-86 -258 0 0 -257 133z"/>
    <path class="fil0" d="M4451 1865c-47,-17 -95,-34 -142,-51 -26,119 -54,233 -86,358l162 220 0 0 180 -94c14,-58 28,-114 41,-170l0 -1c5,-20 9,-41 14,-61l1 -3c4,-20 9,-40 13,-60l1 -3c4,-20 8,-40 13,-60l0 0c-46,-18 -93,-36 -139,-53 -19,-7 -38,-14 -56,-21z"/>
    <path class="fil0" d="M3950 3094c-483,1434 -1166,2633 -1443,2542l99 32 90 30 8 2 2 0 7 2 3 1 6 1 3 1 5 1 4 0 5 1 4 0 5 0 4 0 5 0 4 0 5 0 4 0 5 0 4 0 5 -1 4 -1 5 -1 4 -1 5 -1 5 -1 5 -1 5 -1 5 -1 5 -1 5 -2 5 -2 5 -2 5 -2 5 -2 5 -2 5 -2 5 -2 5 -2 5 -2 5 -3 5 -2 5 -3 5 -3 5 -3 5 -3 5 -3 6 -3 5 -3 5 -3 5 -3 6 -4 5 -4 6 -4 5 -4 6 -4 5 -4 6 -4 5 -4 6 -4 6 -4 6 -5 5 -4 6 -5 5 -4 6 -5 5 -4 7 -5 5 -5 7 -6 5 -5 7 -6 5 -5 7 -6 5 -5 7 -7 5 -5 7 -7 4 -4 8 -8 4 -4 8 -8 4 -4 9 -9 3 -3 9 -10 2 -2c24,-26 49,-54 74,-84l0 0 11 -14 2 -2 11 -13 2 -3 10 -13 3 -3 10 -13 3 -4 10 -12 3 -4 10 -13 3 -5 10 -13 4 -5 9 -13 4 -5 9 -13 4 -5 9 -13 4 -5 9 -13 4 -6 9 -13 4 -6 9 -14 4 -6 9 -14 4 -6 9 -14 4 -6 10 -14 4 -6 10 -15 4 -6 10 -15 4 -6 10 -15 4 -6 10 -16 4 -6 10 -16 4 -6 10 -16 4 -6 10 -17 3 -6 10 -17 3 -6 10 -18 3 -6 10 -18 3 -5 11 -19 3 -5 11 -19 3 -5 11 -20 3 -4 12 -20 2 -4 12 -21 2 -4 12 -22 2 -3 13 -23 1 -1 13 -24 0 -1c97,-181 194,-384 290,-607l0 -1c4,-10 9,-20 13,-31l1 -1c4,-10 9,-20 13,-30l1 -2c4,-10 8,-20 13,-30l1 -2c4,-10 8,-20 13,-30l1 -3c4,-10 8,-20 12,-30l1 -3c4,-10 8,-20 12,-30l1 -4c4,-10 8,-20 12,-30l2 -4c4,-10 8,-20 12,-30l2 -4c4,-10 8,-20 12,-30l2 -4c4,-10 8,-20 12,-30l2 -4c4,-10 8,-20 12,-30l2 -4c4,-10 8,-20 12,-31l2 -4c4,-10 8,-21 12,-31l1 -4c4,-11 8,-21 12,-32l1 -4c4,-11 8,-21 12,-32l1 -3c4,-11 8,-22 12,-33l1 -3c4,-11 8,-22 12,-33l1 -4c4,-11 8,-22 12,-33l1 -3c4,-11 8,-23 12,-34l1 -2c4,-11 8,-23 12,-35l1 -2c4,-12 8,-24 12,-35l0 -1c4,-12 8,-24 13,-37 9,-25 17,-50 26,-75 -47,-19 -94,-38 -142,-57 -65,-26 -132,-51 -199,-76z"/>
    <path class="fil0" d="M4783 741l0 -2c0,-9 0,-19 -1,-28l0 0c-1,-19 -1,-38 -2,-56l0 -3c-1,-18 -2,-36 -4,-53l0 -2 -2 -24 0 -3c-2,-17 -3,-33 -5,-49l0 -3 -3 -23 0 0 -3 -24 0 -2 -3 -20 -1 -4c-3,-14 -5,-28 -8,-42l-1 -4 -4 -18 -1 -3 -5 -20 -1 -2 -4 -17 -1 -4 -5 -18 0 0 -5 -18 -1 -3 -5 -14 -1 -3 -6 -16 0 -1 -6 -14 -1 -4 -6 -13 -1 -2 -7 -14 -1 -3 -6 -11 -2 -3 -15 -25 -2 -3 -6 -9 -2 -2 -8 -11 -1 -2 -7 -8 -2 -3 -7 -8 -1 -1 -9 -9 -2 -2 -7 -6 -2 -2 -9 -7 -1 -1 -8 -6 -3 -2 -8 -5 -2 -1 -10 -5 -2 -1 -8 -4 -3 -1 -10 -4 -90 -30 -99 -32c188,62 174,712 1,1574 58,20 116,41 175,63l21 8c47,17 92,35 138,52l0 0c8,-44 15,-87 22,-129l0 0c11,-70 21,-139 30,-205l0 0c5,-40 10,-79 14,-117l0 0c3,-25 5,-51 8,-76l0 -1c3,-37 6,-73 9,-109l0 -1c2,-24 3,-47 4,-70l0 0c1,-11 1,-23 2,-34l0 0c1,-23 2,-44 2,-66l0 -2c1,-32 1,-64 1,-94l0 -2c0,-20 0,-40 -1,-60z"/>
   </g>
   <g>
    <polygon class="fil0" points="15655,1358 15655,1959 16557,1959 16557,4342 17208,4342 17208,1959 18110,1959 18110,1358 "/>
    <polygon class="fil0" points="14362,1358 13694,3297 13025,1358 12458,1358 11447,4342 12128,4342 12741,2336 13403,4342 13967,4342 14629,2336 15242,4342 15941,4342 14929,1358 "/>
    <polygon class="fil0" points="11051,1367 10438,3373 9773,1358 9215,1358 8550,3373 7937,1367 7239,1367 8247,4342 8820,4342 9486,2412 10151,4342 10724,4342 11733,1367 "/>
   </g>
  </g>
 </g>
</svg>
